<?xml version="1.0" encoding="UTF-8"?>
<svg id="Image" xmlns="http://www.w3.org/2000/svg" viewBox="0 0 180.57 100">
  <defs>
    <style>
      .cls-1 {
        fill: #1e1e1e;
        stroke-width: 0px;
      }
    </style>
  </defs>
  <path class="cls-1" d="m94.95,58.15v3.73h-2.78c0-.2,0-.39,0-.58,0-1.54,0-3.08,0-4.62,0-.19-.07-.43-.2-.54-1.52-1.38-3.06-2.73-4.6-4.1-1.17,4.58-2.37,9.26-3.57,13.94-.03,0-.06,0-.09.01-2.73-10.63-5.45-21.26-8.18-31.89-.04,0-.08,0-.12,0,0,.19,0,.39,0,.58v64.41c0,.13-.01.26,0,.39.06.47-.14.63-.61.46V20.36s.04-.01.06-.02c3.31,12.91,6.62,25.83,9.96,38.89.29-1.11.55-2.08.8-3.05.39-1.5.77-3,1.17-4.5.08-.31.02-.54-.18-.79-3.38-4.19-5.62-8.93-6.46-14.24-1.59-10.14,1.04-19.09,8.03-26.64,4.53-4.9,10.17-7.94,16.72-9.2,1.69-.33,3.44-.38,5.16-.56.08,0,.16.01.26.02v.44c-13.98,1.16-23.69,7.99-28.56,21.32-3.08,10.35-1.24,19.79,5.18,28.38.05,0,.11,0,.16,0,2.58-10.02,5.17-20.03,7.75-30.05.03,0,.07,0,.1.01,0,.17,0,24.45-.01,36.42,0,.44.13.69.52.91,3.85,2.23,7.99,3.57,12.42,3.99,1.72.17,3.45.32,5.16-.12,2.66-.68,4.64-2.31,6.2-4.48,2.05-2.84,2.77-6.04,2.52-9.5-.18-2.53-.89-4.86-2.42-6.9-2.03-2.71-4.76-4.19-8.12-4.58-2.44-.28-4.61-1.2-5.95-3.38-1.42-2.32-1.25-4.72.14-6.98,1.36-2.2,3.42-3.2,5.99-2.89,2.66.32,4.44,1.86,5.28,4.39.51,1.51.37,3.03-.32,4.49-.1.22-.2.44-.49.14.44-.89.69-1.83.67-2.83-.05-3.05-2.61-5.67-5.6-5.75-1.52-.04-2.82.81-3.47,2.35-.69,1.64-.75,3.35-.2,5.03.57,1.72,1.9,2.58,3.62,2.82,1.75.25,3.5.5,5.1,1.28,4.3,2.11,7.03,5.55,8.23,10.14.97,3.69.7,7.32-1.36,10.62-2.37,3.82-5.77,6.18-10.29,6.8-1.76.24-3.53.11-5.28-.1-3.8-.44-7.4-1.53-10.79-3.28-.5-.26-.98-.53-1.56-.84Zm-2.79-24.51s-.05,0-.08,0c-.02.06-.03.12-.05.17-1.45,5.68-2.91,11.35-4.35,17.03-.04.17.05.45.18.58,1.31,1.28,2.63,2.53,3.96,3.79.08.08.2.12.34.2v-21.77Z"/>
  <path class="cls-1" d="m43.68,61.9V24.51h2.74v36.72c.08.05.11.09.13.09,2.75-.05,5.51.24,8.24-.31,3.57-.72,6.43-2.62,8.8-5.33,2.54-2.91,4.06-6.28,4.61-10.09,1.15-7.94-1.85-15.21-9.08-19.5-2.49-1.48-5.24-2.1-8.12-2.1-16.73,0-33.45,0-50.18,0-.21,0-.42,0-.65,0v-.61c.18,0,.36,0,.53,0,16.94,0,33.87-.02,50.81.01,5.46.01,10.14,2.05,14.07,5.84,2.54,2.45,4.41,5.33,5.13,8.8,1.41,6.78-.2,12.76-5,17.82-2.57,2.7-5.6,4.66-9.26,5.48-1.5.34-3.07.52-4.61.57-2.59.09-5.19.03-7.78.02-.11,0-.22-.02-.37-.03Z"/>
  <path class="cls-1" d="m126.84,61.86V23.24h2.74v38.04h50.82v.59h-53.56Z"/>
</svg>