<?xml version="1.0" encoding="utf-8"?>
<!-- Generator: Adobe Illustrator 28.2.0, SVG Export Plug-In . SVG Version: 6.00 Build 0)  -->
<svg version="1.1" id="Camada_1" xmlns="http://www.w3.org/2000/svg" xmlns:xlink="http://www.w3.org/1999/xlink" x="0px" y="0px"
	 viewBox="0 0 800 800" style="enable-background:new 0 0 800 800;" xml:space="preserve">
<g>
	<path d="M557.5,210c-20,0-35,15-35,35c0,20,15,35,35,35c20,0,35-15,35-35S577.5,210,557.5,210z"/>
	<path d="M400,540c-74.5,0-137.5-63-137.5-137.5c0-75.8,61.7-137.5,137.5-137.5c75.8,0,137.5,61.7,137.5,137.5
		C537.5,477,474.5,540,400,540z M400,297.5c-57.9,0-105,47.1-105,105c0,57.9,47.1,105,105,105c57.9,0,105-47.1,105-105
		C505,344.6,457.9,297.5,400,297.5z"/>
	<path d="M280,687.5c-45.7,0-88.5-17.6-120.4-49.6c-32-32-49.6-74.7-49.6-120.4V280c0-45.8,17.7-88.6,49.8-120.4
		c32.3-32,75.9-49.6,122.7-49.6H520c46.3,0,89.2,17.9,121,50.4c31.1,31.9,47.7,74.3,46.5,119.3l0,237.8c0,45.7-17.6,88.5-49.6,120.4
		c-32,32-74.7,49.6-120.4,49.6H280z M280,147.5c-36.3,0-70.3,14.3-95.9,40.2c-25.2,25.6-39.1,59.3-39.1,94.8V520
		c0,36.3,14.3,70.3,40.2,95.9c25.6,25.2,59.3,39.1,94.8,39.1h237.5c36.3,0,70.3-14.3,95.9-40.2c25.2-25.6,39.1-59.3,39.1-94.8V282.5
		c0-36.3-14.3-70.3-40.2-95.9c-25.6-25.2-59.3-39.1-94.8-39.1H280z"/>
</g>
</svg>
