<?xml version="1.0" standalone="no"?>
<!DOCTYPE svg PUBLIC "-//W3C//DTD SVG 20010904//EN"
 "http://www.w3.org/TR/2001/REC-SVG-20010904/DTD/svg10.dtd">
<svg version="1.0" xmlns="http://www.w3.org/2000/svg"
 width="1013.000000pt" height="1013.000000pt" viewBox="0 0 1013.000000 1013.000000"
 preserveAspectRatio="xMidYMid meet">
<metadata>
Created by potrace 1.14, written by Peter Selinger 2001-2017
</metadata>
<g transform="translate(0.000000,1013.000000) scale(0.100000,-0.100000)"
fill="#000000" stroke="none">
<path d="M3770 7765 c-1 -27 -1 -444 -1 -925 l0 -875 101 -340 c56 -187 103
-350 106 -363 2 -13 11 -42 19 -65 7 -23 39 -130 70 -237 112 -383 213 -726
354 -1206 27 -93 65 -223 84 -289 20 -66 68 -230 107 -365 161 -547 199 -678
215 -733 9 -32 19 -57 21 -54 2 2 17 66 33 143 16 76 32 150 35 164 3 14 8 36
10 50 3 14 10 50 16 80 6 30 13 65 16 78 3 13 15 74 29 135 57 263 78 374 78
397 0 21 -147 536 -237 835 -14 44 -94 321 -180 615 -85 294 -167 576 -181
625 -15 50 -31 104 -35 120 -8 27 -47 163 -198 680 -27 94 -109 373 -180 620
-284 974 -281 965 -282 910z"/>
<path d="M6180 7733 c-6 -27 -21 -79 -31 -118 -11 -38 -41 -153 -68 -255 -28
-102 -102 -378 -166 -615 -64 -236 -118 -437 -120 -445 -2 -8 -23 -85 -45
-170 l-42 -155 0 -1575 c1 -866 1 -1581 1 -1587 1 -10 58 -13 250 -13 l249 0
1 2490 c0 1370 -4 2490 -8 2490 -5 0 -14 -21 -21 -47z"/>
<path d="M7486 7533 c-1 -1 -36 -5 -79 -8 -338 -24 -543 -157 -635 -410 -52
-142 -56 -435 -9 -580 38 -116 90 -198 187 -296 120 -120 241 -196 602 -378
336 -169 449 -233 570 -324 289 -218 453 -505 494 -867 10 -86 10 -315 1 -415
-52 -552 -300 -1006 -690 -1268 -166 -111 -386 -194 -567 -214 -25 -3 -49 -9
-55 -15 -7 -6 -5 -7 5 -4 8 2 65 7 126 10 94 5 211 17 289 31 269 46 443 99
630 192 125 62 131 65 200 112 244 167 435 416 535 698 37 104 77 262 86 342
3 31 8 59 10 62 13 23 20 327 10 464 -7 91 -8 100 -40 260 -3 11 -16 58 -31
105 -121 382 -395 682 -875 962 -102 59 -172 97 -375 203 -518 271 -677 441
-669 714 10 339 104 509 320 581 72 24 88 28 123 29 13 1 21 4 17 8 -6 7 -174
12 -180 6z"/>
<path d="M9590 7480 c-4 -3 -7 -1053 -6 -2335 l1 -2330 270 -3 270 -2 0 2335
c0 1284 -2 2336 -5 2336 -17 4 -523 3 -530 -1z"/>
<path d="M40 7462 l-35 -3 1 -2322 c1 -1277 2 -2325 3 -2328 0 -4 111 -7 245
-7 l243 -1 0 2330 0 2329 -21 1 c-104 2 -408 3 -436 1z"/>
<path d="M1020 7457 c3 -3 27 -8 54 -11 126 -17 306 -80 486 -170 637 -319
1062 -920 1166 -1648 2 -16 6 -43 9 -60 25 -172 25 -623 1 -754 -2 -10 -7 -44
-11 -74 -55 -443 -235 -877 -493 -1193 -277 -338 -663 -584 -1117 -712 l-120
-34 75 4 c605 40 1075 216 1450 544 188 165 356 368 488 588 145 240 252 531
292 788 6 39 13 81 15 95 23 132 23 455 0 625 -2 17 -6 46 -9 65 -58 425 -227
839 -459 1125 -42 51 -211 222 -259 261 -203 168 -404 289 -630 380 -117 47
-304 104 -398 123 -30 6 -64 12 -75 15 -11 2 -56 9 -100 15 -44 7 -93 14 -110
16 -53 8 -260 18 -255 12z"/>
</g>
</svg>
