<?xml version="1.0" encoding="utf-8"?>
<!-- Generator: Adobe Illustrator 28.2.0, SVG Export Plug-In . SVG Version: 6.00 Build 0)  -->
<svg version="1.1" id="Layer_1" xmlns="http://www.w3.org/2000/svg" xmlns:xlink="http://www.w3.org/1999/xlink" x="0px" y="0px"
	 viewBox="0 0 800 800" style="enable-background:new 0 0 800 800;" xml:space="preserve">
<style type="text/css">
	.st0{fill-rule:evenodd;clip-rule:evenodd;fill:#F6F6F6;}
</style>
<path class="st0" d="M400,0c220.9,0,400,179.1,400,400S620.9,800,400,800S0,620.9,0,400S179.1,0,400,0z M400,42.1
	C202.3,42.1,42.1,202.3,42.1,400S202.3,757.9,400,757.9S757.9,597.7,757.9,400S597.7,42.1,400,42.1z M382.5,303.3
	c-35.4,16.5-65.6,45-95.8,86.6c-4.3,5.9-4.5,9.5-0.1,12.7c3.1,2.2,4.9,1.5,9.4-3.3c0.6-0.7,0.6-0.7,1.2-1.3
	c3.9-4.2,7.1-7.8,13.8-15.7c22.2-25.8,33.1-36.5,50-46.2c14.6-8.4,27.5,4,25,19.8c-0.7,4.4-1.9,7.7-4.9,14.8c-1.2,2.8-1.7,4-2.3,5.5
	c-5.5,14.4-10.1,26.5-19.8,51.6l-0.5,1.2c-2.9,7.6-2.9,7.6-5.9,15.2c-12.7,33-20.4,53.2-28.3,74.6l-0.5,1.3
	c-1.4,3.8-2.8,7.6-4.2,11.4c-9.1,24.7-14.3,40.7-18.3,57.8c-0.6,2.7-0.6,2.7-1.2,5.4c-2.2,9.6-3.4,15.9-4.1,22.3
	c-1.2,11.1-0.2,20.1,3.2,27.7c3.9,8.6,12.4,14.8,22,16.2c16,2.3,31.5,2.2,44.8-0.9c7.5-1.7,14.8-3.9,22.1-6.6
	c21-7.9,41.2-20.2,60.8-36.5c17.1-14.3,33.3-31.7,50.3-53.3c1.5-1.9,1.5-1.9,3-3.7c5.1-6.5,7.6-10.8,8.6-15.3c1-4.9-3.1-9.8-6.4-8.2
	c-1.6,0.8-3.3,2.5-5.9,5.8c-1.9,2.4-2.9,3.7-3.9,4.8c-4,4.6-8.3,9.2-12.9,14.2c-7.6,8.1-15.3,16.1-26.5,27.4
	c-5.7,5.8-12.9,10.8-20.6,14.6c-12.3,6.1-23.5-1.6-22.1-15.3c0.9-9,3.1-18.4,6.3-27.4c7.1-19.7,13-35.7,25.9-70.9
	c5.6-15.2,8-21.8,11.1-30.1c9-24.4,16.1-44.1,22.9-63.1c8.4-23.4,13.2-40.9,15.4-59c1.7-13.6-2.1-26.6-10.8-35.6
	c-9.6-9.9-23.2-14.5-40.2-14.3C424.5,287.8,402.6,293.9,382.5,303.3L382.5,303.3z M511,141.4c-33.7-13.1-74.2,9.4-81,45.1
	c-4.9,25.9,4.8,48.2,24.5,57.6c39.1,18.6,86.1-11.2,86.1-54.5C540.5,165.5,530.2,148.9,511,141.4L511,141.4z"/>
</svg>
