<?xml version="1.0" encoding="UTF-8"?>
<svg id="Image" xmlns="http://www.w3.org/2000/svg" viewBox="0 0 1500 700">
  <defs>
    <style>
      .cls-1 {
        stroke: none;
        fill: #1e1e1e;
      }
    </style>
  </defs>
  <path class="cls-1" d="m752.91,248.41v14.93h-11.12c0-.82,0-1.57,0-2.32,0-6.16.03-12.32-.03-18.48,0-.74-.28-1.72-.79-2.18-6.09-5.51-12.26-10.93-18.42-16.4-4.69,18.33-9.49,37.07-14.29,55.81-.12.01-.24.03-.37.04-10.91-42.55-21.82-85.1-32.73-127.65-.16,0-.31,0-.47,0,0,.77,0,1.54,0,2.32v257.8c0,.52-.05,1.04,0,1.56.22,1.89-.54,2.51-2.46,1.86V97.17c.09-.02.17-.04.26-.07,13.24,51.69,26.48,103.38,39.88,155.65,1.17-4.43,2.2-8.31,3.21-12.2,1.56-6.01,3.07-12.03,4.67-18.02.33-1.25.08-2.14-.74-3.15-13.55-16.76-22.5-35.73-25.84-57-6.37-40.6,4.18-76.41,32.16-106.65,18.14-19.61,40.7-31.77,66.93-36.84,6.77-1.31,13.75-1.53,20.64-2.24.31-.03.62.05,1.04.09v1.78c-55.98,4.66-94.83,31.96-114.3,85.32-12.34,41.44-4.96,79.22,20.73,113.6.21,0,.43,0,.64,0,10.34-40.09,20.68-80.19,31.01-120.28.14.01.28.03.42.04,0,.67,0,1.34,0,2.01,0,47.93.01,95.86-.04,143.79,0,1.78.54,2.75,2.08,3.64,15.42,8.91,31.99,14.28,49.7,15.99,6.88.66,13.82,1.26,20.66-.48,10.64-2.71,18.55-9.25,24.83-17.94,8.21-11.36,11.07-24.17,10.1-38.01-.71-10.11-3.57-19.44-9.7-27.62-8.15-10.85-19.04-16.78-32.51-18.33-9.78-1.13-18.45-4.79-23.81-13.53-5.68-9.27-5.02-18.88.57-27.93,5.43-8.79,13.69-12.8,23.96-11.57,10.65,1.28,17.75,7.45,21.15,17.56,2.04,6.06,1.47,12.14-1.28,17.96-.41.87-.79,1.78-1.98.55,1.78-3.55,2.75-7.32,2.69-11.34-.2-12.2-10.43-22.7-22.43-23-6.08-.15-11.31,3.26-13.89,9.41-2.76,6.57-3,13.39-.79,20.14,2.27,6.9,7.62,10.32,14.5,11.3,7.01,1,14,1.99,20.42,5.14,17.21,8.45,28.13,22.21,32.93,40.59,3.86,14.77,2.79,29.29-5.44,42.53-9.5,15.28-23.11,24.75-41.19,27.23-7.06.97-14.11.43-21.14-.38-15.19-1.76-29.61-6.11-43.2-13.15-1.98-1.03-3.94-2.12-6.24-3.36Zm-11.17-98.12c-.1-.01-.21-.03-.31-.04-.06.23-.12.46-.18.69-5.82,22.72-11.64,45.43-17.4,68.17-.17.68.19,1.8.71,2.31,5.23,5.11,10.53,10.14,15.83,15.18.33.32.81.49,1.35.81v-87.12Z"/>
  <path class="cls-1" d="m547.71,263.45V113.77h10.95v146.97c.32.22.43.35.53.35,11-.18,22.06.96,32.98-1.24,14.29-2.88,25.75-10.48,35.23-21.34,10.15-11.64,16.24-25.13,18.44-40.39,4.59-31.77-7.4-60.87-36.34-78.06-9.97-5.92-20.96-8.4-32.51-8.4-66.95,0-133.9.02-200.85.03-.83,0-1.67,0-2.61,0v-2.43c.74,0,1.43,0,2.12,0,67.79,0,135.59-.1,203.38.06,21.86.05,40.6,8.19,56.33,23.37,10.17,9.82,17.64,21.32,20.52,35.23,5.63,27.13-.8,51.08-20.02,71.32-10.27,10.82-22.43,18.63-37.07,21.95-6.02,1.36-12.27,2.08-18.44,2.3-10.37.37-20.76.1-31.14.1-.44,0-.89-.07-1.49-.13Z"/>
  <path class="cls-1" d="m880.57,263.3V108.69h10.96v152.25h203.42v2.36h-214.38Z"/>
  <path class="cls-1" d="m733.54,310.78c2.31.17,1.39,1.82,1.56,3.2h-6.58v-2.79c.49-.12.96-.24,1.51-.37v-3.26c-3.7,1.76-5.89.87-6.31-3.12-.38-3.67-.01-7.43.18-11.15.04-.83.59-1.72,1.12-2.41,1.26-1.64,2.68-1.59,4.74-.1,1.55-1.63,3.43-.45,5.22-.93v2.85c-.15-.06-.31-.11-.46-.17-.32.75-.92,1.5-.93,2.25-.08,5.3-.04,10.6-.04,15.98Zm-3.29-11.32c-.18-1.86-.25-3.54-.57-5.18-.1-.52-.83-1.15-1.36-1.26-.33-.07-1.21.74-1.22,1.18-.08,3.35-.06,6.7.07,10.04.02.44.79,1.18,1.22,1.18.43,0,1.16-.67,1.26-1.15.33-1.63.43-3.31.6-4.81Z"/>
  <path class="cls-1" d="m1023.51,289.99h5.11c0,.96,0,1.9,0,2.84,0,3.56-.04,7.13.05,10.69.01.54.6,1.07.92,1.6.48-.53,1.35-1.05,1.37-1.6.13-3.17.11-6.35.02-9.52-.01-.45-.73-.88-1.41-1.66v-2.27h4.89v6.5c0,2.27-.07,4.54.05,6.8.03.58.7,1.1.92,1.7.26.73.47,1.54.43,2.29-.02.27-.82.7-1.27.71-1.24.03-2.49-.12-3.71-.45-3.48,1.64-5.63.38-5.66-3.69-.03-3.11,0-6.22-.01-9.33,0-.72.18-1.39-.95-1.75-.46-.15-.46-1.71-.73-2.88Z"/>
  <path class="cls-1" d="m748.77,293.26q-1.68-.45-1.42-3.19h4.88c0,1.61,0,3.26,0,4.92,0,2.52-.04,5.05.02,7.57.02.98-.5,2.14,1.03,2.76.37.15.2,1.64.31,2.81-1.82-.24-3.51.59-5.13-.71-3.52,1.85-5.5.65-5.53-3.59-.02-3.49,0-6.98,0-10.56-2.43-.24-1.31-1.91-1.5-3.23h4.89c0,2.1,0,4.21,0,6.32,0,2.33-.06,4.66.06,6.99.03.6.64,1.16.99,1.75.47-.61,1.32-1.2,1.34-1.83.14-3.29.06-6.6.06-10.01Z"/>
  <path class="cls-1" d="m819.03,290.03h4.86c0,2.14,0,4.32,0,6.49,0,2.27-.07,4.54.05,6.8.03.61.65,1.19,1,1.79.47-.61,1.31-1.2,1.34-1.82.13-3.3.06-6.6.06-10-2.19-.19-1.48-1.75-1.51-3.17h4.79v14.64c2.36.24,1.53,1.82,1.59,3.52-1.7-.22-3.29-.46-4.88-.63-.37-.04-.79.1-1.15.25-2.19.93-4.11.16-4.35-2.18-.35-3.4-.21-6.84-.34-10.27-.04-.96.53-2.15-1.08-2.67-.35-.11-.24-1.64-.38-2.75Z"/>
  <path class="cls-1" d="m957.83,289.6c2.14.39,3.67.69,5.21.94.26.04.57-.1.82-.22,2.69-1.28,4.65-.28,4.83,2.72.2,3.36.04,6.74.16,10.11.02.65.72,1.26.94,1.94.28.86.39,1.78.62,2.87h-4.92c0-2.98,0-5.94,0-8.89,0-1.56.06-3.12-.07-4.66-.04-.51-.6-.97-.92-1.45-.48.38-1.36.74-1.37,1.13-.13,3.43-.33,6.89.05,10.28.09.83,1.46,1.77,1.18,3.12-.03.13-.07.25-.15.51h-5.85c.09-1.17-.95-2.52.98-3.18.22-.08.3-.8.3-1.23.02-3.05.05-6.1-.03-9.14-.01-.47-.62-.9-.8-1.4-.33-.92-.55-1.88-.98-3.43Z"/>
  <path class="cls-1" d="m860.49,297.67c0-1,.18-1.89-.05-2.66-.26-.87-.89-1.63-1.37-2.44-.75.52-1.49,1.04-2.24,1.55.06.19.12.38.18.57-.96-.24-1.91-.48-2.86-.72.45-2.98,1.94-4.37,4.57-4.42,2.86-.05,4.68,1.23,4.94,4.04.29,3.14.11,6.32.26,9.48.03.68.66,1.3.85,2,.25.88.34,1.8.57,3.07-1.91-.32-3.65.69-5.22-.85-3.2,1.95-5.72.9-6.38-3.03-.24-1.41-.11-2.99.28-4.38.77-2.77,3.18-3.57,6.47-2.22Zm0,4.97c.02-1.23.34-2.82-1.58-2.85-1.7-.02-1.75,1.57-1.75,2.72,0,1.12-.09,2.69,1.74,2.67,1.68-.02,1.65-1.29,1.58-2.55Z"/>
  <path class="cls-1" d="m1066.44,307.71c-1.92,1.64-4.95.49-5.69-2.85-.31-1.41-.29-2.99-.01-4.41.61-3.1,2.95-4.1,6.5-2.92,0-1.06.13-2.1-.05-3.1-.11-.65-.66-1.22-1.01-1.83-.67.45-1.36.88-2,1.36-.17.13-.21.43-.35.75-.97-.27-1.88-.51-2.76-.76.44-3.2,2.16-4.57,5.35-4.4,2.47.13,4.21,1.93,4.26,4.62.07,3.1-.02,6.21.06,9.31.01.53.64,1.01.84,1.57.26.72.54,1.51.48,2.24-.03.31-.9.77-1.39.78-1.23.01-2.45-.2-4.21-.37Zm.86-5.18c.03-1.23.25-2.78-1.54-2.73-1.59.05-1.74,1.5-1.7,2.79.03,1.18.03,2.53,1.65,2.59,1.93.07,1.57-1.46,1.6-2.65Z"/>
  <path class="cls-1" d="m696.06,297.55c0-1.19.15-2.25-.05-3.23-.13-.63-.77-1.16-1.18-1.73-.61.44-1.23.86-1.81,1.33-.18.14-.23.43-.42.79-.94-.25-1.85-.5-2.74-.73.36-3.06,2.05-4.48,5.08-4.4,2.67.07,4.39,1.77,4.46,4.58.07,2.91,0,5.82.03,8.73.01.88-.38,1.88,1.06,2.34.4.13.34,1.7.55,2.99-1.99-.13-3.65-.24-6.08-.4-2.36,1.35-4.71.37-5.5-3.2-.26-1.17-.29-2.47-.08-3.64.61-3.5,2.94-4.71,6.67-3.41Zm.04,4.9c.1-1.29.13-2.74-1.59-2.66-1.59.07-1.71,1.57-1.66,2.8.04,1.17-.05,2.68,1.76,2.61,1.88-.07,1.43-1.6,1.49-2.74Z"/>
  <path class="cls-1" d="m1052.97,289.72v6.73h-2.92c-.11-.65-.08-1.4-.37-1.99-.33-.67-.94-1.19-1.44-1.78-.46.54-1.3,1.06-1.32,1.61-.12,3.15-.11,6.31.03,9.46.02.56.88,1.07,1.35,1.61.49-.51,1.14-.95,1.42-1.55.32-.67.31-1.49.52-2.69,1.07.81,2.63,1.41,2.67,2.11.15,2.41-1.05,4.32-2.86,5.04-.12,1.64.2,3.22-.44,4.14-.61.88-2.21,1.08-3.69,1.72-.06-1.15-.08-1.7-.11-2.34.58-.12,1.19-.08,1.52-.37.33-.29.38-.9.55-1.36-1.15-.11-1.08-1.47-1.72-1.84-2.46-1.42-2.84-3.82-2.98-6.18-.15-2.69-.05-5.44.31-8.11.51-3.78,2.16-4.55,5.84-3.51.99.28,2.25-.4,3.62-.69Z"/>
  <path class="cls-1" d="m1089.13,299.52c-.31,1.65-.55,3.85-1.17,5.93-.64,2.15-2.31,3.21-4.17,3.13-1.87-.08-3.4-1.26-3.99-3.4-1.14-4.13-1.16-8.32.03-12.44.53-1.83,1.69-3.18,3.89-3.19,2.17,0,3.39.78,4.25,2.95.24.6.48,1.21.57,1.84.23,1.53.36,3.07.6,5.17Zm-6.53-.6h.22c0,1.68-.08,3.37.05,5.03.04.48.72.9,1.11,1.35.38-.46,1.07-.91,1.09-1.37.09-3.28.09-6.57-.01-9.86-.01-.47-.71-.92-1.09-1.39-.38.46-1.02.89-1.09,1.4-.21,1.6-.2,3.22-.28,4.83Z"/>
  <path class="cls-1" d="m940.95,298.43c.28-1.67.47-3.74,1.01-5.71.51-1.85,1.7-3.16,3.88-3.17,2.17,0,3.45.76,4.21,2.98,1.44,4.22,1.4,8.51.1,12.75-.68,2.22-2.37,3.37-4.28,3.29-1.87-.08-3.26-1.26-3.98-3.42-.18-.55-.33-1.12-.4-1.69-.19-1.54-.33-3.08-.54-5.02Zm6.53.76c-.08-1.71-.08-3.4-.29-5.06-.06-.52-.7-.96-1.07-1.44-.39.51-1.11,1.01-1.12,1.53-.1,3.22-.1,6.45,0,9.67.01.49.67.95,1.02,1.43.4-.44,1.08-.84,1.15-1.33.22-1.59.23-3.22.31-4.81Z"/>
  <path class="cls-1" d="m797.95,300h-6.29c0,1.31-.15,2.48.06,3.58.12.64.83,1.18,1.27,1.76.49-.52,1.02-1.01,1.45-1.58.22-.29.26-.72.42-1.21.91.32,1.79.63,2.65.93-.51,3.84-3.35,6.08-6.16,4.65-1.21-.62-2.6-2.17-2.72-3.41-.36-3.69-.43-7.47-.05-11.16.29-2.85,2.03-4.03,4.39-4,2.2.02,3.88,1.47,4.38,4.15.36,1.95.39,3.97.59,6.29Zm-3.55-2.86c-.09-1.24-.04-2.34-.3-3.36-.12-.47-.83-1.12-1.24-1.1-.42.02-1.07.72-1.15,1.21-.18,1.03-.05,2.11-.05,3.26h2.74Z"/>
  <path class="cls-1" d="m899.19,300.08h-6.5c.11,1.36.08,2.59.35,3.74.13.56.82,1,1.25,1.49.46-.48.97-.91,1.35-1.44.25-.35.3-.83.47-1.34.93.35,1.82.68,2.69,1-.77,3.89-3.34,5.95-6.09,4.64-1.23-.58-2.7-2.1-2.81-3.31-.36-3.81-.41-7.7-.03-11.51.27-2.7,2.03-3.83,4.34-3.8,2.13.02,3.86,1.43,4.34,3.94.4,2.06.42,4.18.64,6.58Zm-3.71-2.95c0-1.18.15-2.17-.06-3.07-.13-.56-.81-.98-1.24-1.47-.44.46-1.15.87-1.25,1.4-.2,1.01-.06,2.09-.06,3.15h2.6Z"/>
  <path class="cls-1" d="m985.85,290.02v5.89h-2.92c-.14-.89-.18-1.73-.44-2.51-.1-.32-.68-.7-.99-.66-.3.04-.71.55-.77.91-.3,1.63.59,2.7,1.86,3.53,2.64,1.73,4.16,3.99,3.68,7.33-.45,3.12-2.14,4.22-5.07,3.16-.22-.08-.5.02-.75.06-.95.16-1.9.33-3.02.52v-6.45h2.91c.15.69.23,1.58.56,2.37.18.43.79.69,1.2,1.02.3-.44.91-.95.83-1.31-.2-.9-.55-1.85-1.13-2.55-.78-.93-1.88-1.59-2.74-2.46-2.05-2.07-2.46-5.51-.95-7.67.91-1.3,1.99-1.77,3.68-1.25,1.19.37,2.58.07,4.07.07Z"/>
  <path class="cls-1" d="m930.37,290.15c1.02-.09,2.04-.17,3.19-.27v6.58h-2.82c-.17-.86-.22-1.77-.56-2.57-.21-.5-.86-1.13-1.31-1.13-.45,0-1.27.71-1.28,1.13-.11,3.35-.12,6.71,0,10.06.02.48.89,1.27,1.38,1.29.47.01,1.16-.72,1.4-1.27.3-.67.23-1.51.32-2.27,2.89.29,3.47,1.16,2.52,3.75-.69,1.89-2.33,3.09-4.26,3.13-2.09.04-3.82-1.03-4.44-3.1-1.28-4.31-1.27-8.7-.03-13,.83-2.89,3.21-3.53,5.75-1.81.04-.18.09-.35.13-.53Z"/>
  <path class="cls-1" d="m998.2,284.97v4.88c.71.06,1.26.11,1.92.16v2.85c-.53.1-1.13.21-1.92.35,0,3.54-.1,7.09.09,10.62.04.64,1.29,1.21,1.98,1.81.27-.1.55-.19.82-.29-.31.92-.34,2.28-.98,2.68-1.57.98-4.32.09-4.86-1.43-.4-1.12-.51-2.39-.55-3.6-.08-2.65-.07-5.31,0-7.96.03-1.18.01-2.19-1.52-2.19v-2.64c.18.05.35.1.53.16.32-.7.92-1.4.92-2.1,0-2.25,2.12-2.31,3.11-3.5.15.06.3.13.46.19Z"/>
  <path class="cls-1" d="m806.39,293.22c-.6-.13-1.08-.23-1.6-.34v-2.7c.51-.14,1.03-.28,1.7-.47-.84-2.79,1.07-3.77,3.23-4.98v5.06c.75.1,1.3.18,1.98.27v2.8c-.49.1-1.09.21-1.9.38,0,3.5-.1,7.05.09,10.59.04.64,1.28,1.22,1.97,1.83.28-.1.56-.19.84-.29-.31.92-.34,2.27-.98,2.68-1.46.94-4.19.09-4.79-1.28-.35-.8-.5-1.74-.51-2.63-.06-3.56-.02-7.13-.02-10.91Z"/>
  <path class="cls-1" d="m842.93,290.11v1.94c1.21-.89,2.44-1.79,3.66-2.69.16.15.32.29.48.44v3.21c-3.84,1.46-4.13,1.88-4.13,6.21,0,1.81,0,3.62.37,5.22.5.63,1.24,1.2,1.45,1.91.36,1.24-.21,1.89-1.64,1.79-1.66-.11-3.33-.03-5.15-.03.25-1.34-.91-2.87,1.24-3.28.16-.03.28-.67.29-1.03.02-3.49.01-6.98.01-10.56-2.32-.13-1.38-1.79-1.56-3.14h4.99Z"/>
  <path class="cls-1" d="m707.14,290.05h5.17c.08.63.15,1.25.21,1.78,1.14-.8,2.3-1.62,3.89-2.74,0,1.79,0,2.86,0,3.94-3.72,1.35-3.97,1.72-3.97,5.76,0,1.43.07,2.86-.02,4.28-.08,1.24.1,2.18,1.63,2.09v2.82h-6.51c.14-1.11-1.13-2.52.97-3.11.23-.07.41-.76.41-1.16.03-3.11.06-6.22-.02-9.33-.01-.45-.68-.85-.86-1.34-.35-.9-.57-1.86-.9-2.98Z"/>
  <path class="cls-1" d="m1014.25,305.05c0,.71,0,1.15,0,1.6,0,.38-.04.77-.07,1.44-1.99,0-4,.18-5.93-.12-.52-.08-.82-1.61-1.37-2.82,2.31.11,2.25-1.06,2.23-2.29-.04-3.16-.01-6.33-.01-9.63-.59-.14-1.11-.25-1.67-.38v-2.77h4.87c.06.64.13,1.33.18,1.9,1.18-.85,2.41-1.75,3.65-2.64.15.15.3.3.45.46v3.21c-3.51,1.18-4.12,2.02-4.16,5.72-.01,1.49.07,2.98-.02,4.46-.08,1.28.29,2.01,1.86,1.84Z"/>
  <path class="cls-1" d="m778.05,284.93v4.88c.83.1,1.44.17,2.13.26v2.87c-.66.08-1.28.15-2.07.24,0,3.52-.12,7.01.1,10.48.04.71,1.32,1.35,2.03,2.02.28-.06.56-.13.83-.19-.36.89-.49,2.27-1.13,2.59-1.79.89-4.07.06-4.67-1.51-.36-.94-.47-2.01-.49-3.03-.06-2.72.02-5.44-.04-8.16-.02-.95.62-2.37-1.25-2.4.13-1,.19-2.02.42-3.01.09-.37.75-.62.82-.98.42-2.53.49-2.66,3.34-4.05Z"/>
  <path class="cls-1" d="m766.3,308.12c-1.46,0-2.68.07-3.89-.03-.62-.05-1.73-.41-1.73-.62,0-.87-.83-2.13.83-2.55.26-.07.47-.82.48-1.26.04-3.11.06-6.21-.02-9.32-.01-.44-.64-.84-.82-1.32-.33-.87-.53-1.8-.85-2.92h5.1c0,3.6-.1,7.14.04,10.68.09,2.34.54,4.67.87,7.34Z"/>
  <path class="cls-1" d="m1061.66,287.62c.06-.75.04-1.53.21-2.25.5-2.13,2.2-2.78,4.14-1.58.87.53,1.64,1.45,2.38-.21.14-.31,1.09-.25,1.83-.4.11,1.95-.07,3.8-1.79,4.27-1.26.34-2.82-.46-4.17-.73-.64.41-1.39.89-2.13,1.37-.16-.15-.31-.31-.47-.46Z"/>
  <path class="cls-1" d="m763.9,281.35c.61.77,1.58,1.46,1.74,2.31.24,1.28-.69,2.26-2.04,2.3-1.35.04-2.33-.88-2.16-2.18.11-.86,1.03-1.61,1.59-2.41.29,0,.59-.01.88-.02Z"/>
</svg>