<?xml version="1.0" encoding="UTF-8" standalone="no"?>
<!-- Created with Inkscape (http://www.inkscape.org/) -->

<svg
   width="420mm"
   height="297mm"
   viewBox="0 0 420 297"
   version="1.1"
   id="svg1"
   inkscape:version="1.3 (0e150ed, 2023-07-21)"
   sodipodi:docname="logo.svg"
   inkscape:export-filename="logo_concept_2_v2.jpg"
   inkscape:export-xdpi="96"
   inkscape:export-ydpi="96"
   xmlns:inkscape="http://www.inkscape.org/namespaces/inkscape"
   xmlns:sodipodi="http://sodipodi.sourceforge.net/DTD/sodipodi-0.dtd"
   xmlns:xlink="http://www.w3.org/1999/xlink"
   xmlns="http://www.w3.org/2000/svg"
   xmlns:svg="http://www.w3.org/2000/svg">
  <sodipodi:namedview
     id="namedview1"
     pagecolor="#ffffff"
     bordercolor="#000000"
     borderopacity="0.25"
     inkscape:showpageshadow="2"
     inkscape:pageopacity="0.0"
     inkscape:pagecheckerboard="0"
     inkscape:deskcolor="#d1d1d1"
     inkscape:document-units="mm"
     showgrid="true"
     inkscape:zoom="0.40727696"
     inkscape:cx="1042.2883"
     inkscape:cy="434.5937"
     inkscape:window-width="1440"
     inkscape:window-height="847"
     inkscape:window-x="0"
     inkscape:window-y="25"
     inkscape:window-maximized="0"
     inkscape:current-layer="g62">
    <inkscape:grid
       id="grid82"
       units="mm"
       originx="0"
       originy="0"
       spacingx="0.99999998"
       spacingy="1"
       empcolor="#0099e5"
       empopacity="0.30196078"
       color="#0099e5"
       opacity="0.14901961"
       empspacing="5"
       dotted="false"
       gridanglex="30"
       gridanglez="30"
       visible="true" />
  </sodipodi:namedview>
  <defs
     id="defs1">
    <rect
       x="1058.2677"
       y="982.67714"
       width="207.87402"
       height="94.488186"
       id="rect91" />
    <rect
       x="157.20544"
       y="444.89142"
       width="239.81372"
       height="244.94962"
       id="rect9" />
    <rect
       x="41.837746"
       y="129.31667"
       width="671.3056"
       height="138.82524"
       id="rect67" />
    <linearGradient
       id="swatch7"
       inkscape:swatch="solid"
       inkscape:label="light__background">
      <stop
         style="stop-color:#da5225;stop-opacity:1;"
         offset="0"
         id="stop7" />
    </linearGradient>
    <rect
       x="252.11908"
       y="263.96359"
       width="470.39667"
       height="103.21654"
       id="rect68" />
    <rect
       x="41.837746"
       y="129.31667"
       width="671.3056"
       height="138.82524"
       id="rect28" />
    <rect
       x="252.11908"
       y="263.96359"
       width="470.39667"
       height="103.21654"
       id="rect29" />
    <rect
       x="41.837746"
       y="129.31667"
       width="671.3056"
       height="138.82524"
       id="rect78" />
    <rect
       x="252.11908"
       y="263.96359"
       width="470.39667"
       height="103.21654"
       id="rect79" />
    <rect
       x="41.837746"
       y="129.31667"
       width="671.3056"
       height="138.82524"
       id="rect80" />
    <rect
       x="252.11908"
       y="263.96359"
       width="470.39667"
       height="103.21654"
       id="rect81" />
    <linearGradient
       inkscape:collect="always"
       xlink:href="#swatch7"
       id="linearGradient82"
       gradientUnits="userSpaceOnUse"
       gradientTransform="translate(206.16662,80.124115)"
       x1="46.817364"
       y1="81.195213"
       x2="50.167332"
       y2="81.195213" />
    <rect
       x="1058.2677"
       y="982.67712"
       width="207.87402"
       height="94.48819"
       id="rect91-0" />
    <rect
       x="1058.2677"
       y="982.67712"
       width="207.87402"
       height="94.48819"
       id="rect91-0-0" />
    <rect
       x="1058.2677"
       y="982.67712"
       width="207.87402"
       height="94.48819"
       id="rect91-0-0-1" />
    <rect
       x="1058.2677"
       y="982.67712"
       width="207.87402"
       height="94.48819"
       id="rect91-0-0-4" />
  </defs>
  <g
     inkscape:label="Layer 1"
     inkscape:groupmode="layer"
     id="layer1">
    <g
       id="g82"
       style="display:inline"
       inkscape:label="light">
      <g
         id="g62"
         transform="translate(1.8536714,-73.141258)"
         style="display:inline">
        <text
           xml:space="preserve"
           transform="matrix(0.41362007,0,0,0.37879026,199.0183,69.131385)"
           id="text43"
           style="font-size:66.6667px;white-space:pre;shape-inside:url(#rect78);display:inline;fill:none;stroke:#d4eef7;stroke-opacity:1"><tspan
             x="41.837891"
             y="190.13846"
             id="tspan6"><tspan
               style="font-family:Optima;-inkscape-font-specification:Optima;fill:#233848;stroke:none"
               id="tspan1">B</tspan><tspan
               style="font-family:Optima;-inkscape-font-specification:Optima;fill:#da5225;stroke:none"
               id="tspan2">OO</tspan><tspan
               style="font-family:Optima;-inkscape-font-specification:Optima;fill:#233848;stroke:none"
               id="tspan3">MER</tspan><tspan
               style="font-family:Optima;-inkscape-font-specification:Optima;fill:#233848"
               id="tspan4"> </tspan><tspan
               style="font-weight:bold;font-family:Optima;-inkscape-font-specification:'Optima, Bold';fill:#da5225;stroke:none"
               id="tspan5">BING</tspan></tspan></text>
        <path
           style="display:inline;fill:#da5225;fill-opacity:1;stroke:none;stroke-width:0.679594;stroke-linecap:butt;stroke-linejoin:round;stroke-dasharray:none;stroke-opacity:1"
           id="path43"
           d="m 295.49565,165.99706 c 12.7003,-0.52007 25.43691,-0.55261 38.16578,-0.57539 15.42559,-0.024 30.85014,0.1566 46.27542,0.0719 3.72501,-0.0327 2.01693,-0.0151 5.12433,-0.0504 0,0 -3.12854,-1.29009 -3.12854,-1.29009 v 0 c -2.93523,0.10692 -1.31762,0.0523 -4.8535,0.15809 -15.11843,0.36613 -30.25548,0.30098 -45.38522,0.29172 -11.58908,-0.031 -23.17311,-0.0397 -34.76156,0.0194 -3.11298,0.0159 -2.4938,0.0171 -4.76254,-0.0174 z" />
        <path
           style="display:inline;fill:#da5225;fill-opacity:1;stroke:#da5225;stroke-width:0.204917;stroke-opacity:1"
           d="m 266.36054,149.05455 c 0,0 -0.28762,-3.93025 -2.42187,-4.75514 0,0 -1.48908,-0.65742 -2.27656,-0.8799 -1.77787,-0.50228 -3.68125,-1.4159 -5.4822,-1.42062 -1.80094,-0.005 -3.70432,0.90892 -5.48219,1.4112 -0.78749,0.22248 -2.27657,0.8799 -2.27657,0.8799 -2.13425,0.82489 -2.42187,4.75514 -2.42187,4.75514 0,0 0.65273,-2.07884 2.25268,-2.56824 0.39999,-0.12235 0.85918,0.28458 1.38218,0.17018 0.52299,-0.1144 1.10979,-0.75014 1.76499,-0.84118 0.6552,-0.091 1.37881,0.36262 2.17542,0.31036 0.79661,-0.0523 1.66623,-0.61044 2.61346,-0.60851 0.93033,0.002 1.78702,0.56311 2.57394,0.61772 0.78693,0.0546 1.5041,-0.39737 2.15537,-0.30517 0.65127,0.0922 1.23666,0.72857 1.76002,0.84323 0.52337,0.11465 0.98471,-0.29241 1.38792,-0.17043 1.6128,0.48793 2.29528,2.56146 2.29528,2.56146 z"
           id="path44"
           sodipodi:nodetypes="csscsscsssssssssc" />
        <path
           style="display:inline;fill:#da5225;fill-opacity:1;stroke:#da5225;stroke-width:0.865;stroke-linecap:butt;stroke-linejoin:round;stroke-dasharray:none;stroke-opacity:1"
           d="m 249.25051,155.7314 5.67271,2.37888 -3.65981,2.74486 z"
           id="path45" />
        <path
           style="display:inline;fill:#da5225;fill-opacity:1;stroke:#da5225;stroke-width:0.865;stroke-linecap:butt;stroke-linejoin:round;stroke-dasharray:none;stroke-opacity:1"
           d="m 262.81033,155.76111 -5.67271,2.37888 3.65981,2.74485 z"
           id="path46" />
        <path
           style="display:inline;fill:#da5225;fill-opacity:1;stroke:url(#linearGradient82);stroke-width:1.065;stroke-linecap:butt;stroke-linejoin:round;stroke-dasharray:none;stroke-opacity:1"
           d="m 254.59698,163.76028 -1.08051,-2.74283 2.49794,-1.91275 2.49795,1.9106 -1.08051,2.74283 z"
           id="path47"
           sodipodi:nodetypes="cccccc" />
        <path
           style="display:inline;fill:#da5225;fill-opacity:1;stroke:#da5225;stroke-width:0.773239;stroke-linecap:butt;stroke-linejoin:round;stroke-dasharray:none;stroke-opacity:1"
           d="m 257.39716,165.14627 2.3921,13.83642 -3.77557,3.68177 -3.77557,-3.67803 2.39209,-13.83641 z"
           id="path48"
           sodipodi:nodetypes="cccccc" />
        <path
           style="display:inline;fill:#da5225;fill-opacity:1;stroke:#da5225;stroke-width:0.726681;stroke-linecap:butt;stroke-linejoin:round;stroke-dasharray:none;stroke-opacity:1"
           id="path49"
           d="m 337.45925,118.4123 c 0.0347,1.93491 0.0339,3.87073 0.0355,5.80615 7.1e-4,2.23555 10e-4,4.47109 -0.009,6.7066 -0.0126,1.11893 -0.0162,2.23798 -0.0244,3.35697 0.006,0.61588 -0.007,1.23171 -0.006,1.84752 -0.004,0.45461 5e-5,0.90924 0.002,1.36386 -0.001,0.54259 0.002,1.08517 -0.003,1.62775 1.4e-4,0.513 3.7e-4,1.02597 0.004,1.53896 0.006,0.73973 0.006,1.47955 -10e-4,2.21926 10e-4,0.499 -0.004,0.99802 -0.003,1.49699 1.1e-4,0.17502 -10e-4,0.35 -0.004,0.52498 0,0 2.49137,1.81636 2.49137,1.81636 v 0 c -0.002,-0.17677 -0.004,-0.35356 -0.004,-0.53038 0.002,-0.50023 -0.004,-1.0005 -0.003,-1.50074 -0.007,-0.74025 -0.006,-1.48061 -0.001,-2.22087 0.004,-0.51118 0.004,-1.02232 0.004,-1.53351 -0.004,-0.54379 -0.001,-1.08759 -0.003,-1.6314 0.002,-0.45346 0.006,-0.90695 0.002,-1.36041 7.1e-4,-0.61903 -0.0119,-1.2381 -0.006,-1.8572 -0.008,-1.13085 -0.0119,-2.26175 -0.0244,-3.39254 -0.01,-2.23973 -0.009,-4.47949 -0.009,-6.71926 0.001,-1.91817 5.6e-4,-3.83676 0.0355,-5.75441 z" />
        <path
           style="display:inline;fill:none;fill-opacity:1;stroke:#da5225;stroke-width:0.865;stroke-linecap:butt;stroke-linejoin:round;stroke-dasharray:none;stroke-opacity:1"
           d="m 252.86598,128.20098 c 0,0 3.25461,-2.54709 6.50923,0"
           id="path50" />
        <text
           xml:space="preserve"
           transform="matrix(0.26458333,0,0,0.26458333,209.0532,81.884105)"
           id="text62"
           style="font-style:normal;font-variant:normal;font-weight:bold;font-stretch:normal;font-size:33.3333px;line-height:1.5;font-family:Optima;-inkscape-font-specification:'Optima, Bold';font-variant-ligatures:normal;font-variant-caps:normal;font-variant-numeric:normal;font-variant-east-asian:normal;text-align:start;letter-spacing:0px;word-spacing:0px;white-space:pre;shape-inside:url(#rect79);display:inline;fill:#fafafa;fill-opacity:1;stroke:none;stroke-width:3.26929;stroke-linecap:butt;stroke-linejoin:round;stroke-dasharray:none;stroke-opacity:1"
           x="166.67465"
           y="0"><tspan
             x="319.16162"
             y="298.05123"
             id="tspan8"><tspan
               style="font-family:'Oriya MN';-inkscape-font-specification:'Oriya MN Bold';text-align:center;text-anchor:middle;fill:#233848"
               id="tspan7">Motivational Speaker&#10;</tspan></tspan><tspan
             x="361.86991"
             y="348.64345"
             id="tspan10"><tspan
               style="font-family:'Oriya MN';-inkscape-font-specification:'Oriya MN Bold';text-align:center;text-anchor:middle;fill:#233848"
               id="tspan9">Business Coach</tspan></tspan></text>
      </g>
    </g>
  </g>
</svg>
