<?xml version="1.0" encoding="UTF-8"?>
<svg id="Image" xmlns="http://www.w3.org/2000/svg" viewBox="0 0 721.43 399.54">
  <defs>
    <style>
      .cls-1 {
        fill: #1e1e1e;
        stroke-width: 0px;
      }
    </style>
  </defs>
  <path class="cls-1" d="m379.4,232.01v14.93h-11.12c0-.82,0-1.57,0-2.32,0-6.16.03-12.32-.03-18.48,0-.74-.28-1.72-.79-2.18-6.09-5.51-12.26-10.93-18.42-16.4-4.69,18.33-9.49,37.07-14.29,55.81-.12.01-.24.03-.37.04-10.91-42.55-21.82-85.1-32.73-127.65-.16,0-.31,0-.47,0,0,.77,0,1.54,0,2.32v257.8c0,.52-.05,1.04,0,1.56.22,1.89-.54,2.51-2.46,1.86V80.77c.09-.02.17-.04.26-.07,13.24,51.69,26.48,103.38,39.88,155.65,1.17-4.43,2.2-8.31,3.21-12.2,1.56-6.01,3.07-12.03,4.67-18.02.33-1.25.08-2.14-.74-3.15-13.55-16.76-22.5-35.73-25.84-57-6.37-40.6,4.18-76.41,32.16-106.65,18.14-19.61,40.7-31.77,66.93-36.84,6.77-1.31,13.75-1.53,20.64-2.24.31-.03.62.05,1.04.09v1.78c-55.98,4.66-94.83,31.96-114.3,85.32-12.34,41.44-4.96,79.22,20.73,113.6.21,0,.43,0,.64,0,10.34-40.09,20.68-80.19,31.01-120.28.14.01.28.03.42.04,0,.67.01,97.87-.04,145.79,0,1.78.54,2.75,2.08,3.64,15.42,8.91,31.99,14.28,49.7,15.99,6.88.66,13.82,1.26,20.66-.48,10.64-2.71,18.55-9.25,24.83-17.94,8.21-11.36,11.07-24.17,10.1-38.01-.71-10.11-3.57-19.44-9.7-27.62-8.15-10.85-19.04-16.78-32.51-18.33-9.78-1.13-18.45-4.79-23.81-13.53-5.68-9.27-5.02-18.88.57-27.93,5.43-8.79,13.69-12.8,23.96-11.57,10.65,1.28,17.75,7.45,21.15,17.56,2.04,6.06,1.47,12.14-1.28,17.96-.41.87-.79,1.78-1.98.55,1.78-3.55,2.75-7.32,2.69-11.34-.2-12.2-10.43-22.7-22.43-23-6.08-.15-11.31,3.26-13.89,9.41-2.76,6.57-3,13.39-.79,20.14,2.27,6.9,7.62,10.32,14.5,11.3,7.01,1,14,1.99,20.42,5.14,17.21,8.45,28.13,22.21,32.93,40.59,3.86,14.77,2.79,29.29-5.44,42.53-9.5,15.28-23.11,24.75-41.19,27.23-7.06.97-14.11.43-21.14-.38-15.19-1.76-29.61-6.11-43.2-13.15-1.98-1.03-3.94-2.12-6.24-3.36Zm-11.17-98.12c-.1-.01-.21-.03-.31-.04-.06.23-.12.46-.18.69-5.82,22.72-11.64,45.43-17.4,68.17-.17.68.19,1.8.71,2.31,5.23,5.11,10.53,10.14,15.83,15.18.33.32.81.49,1.35.81v-87.12Z"/>
  <path class="cls-1" d="m174.19,247.04V97.36h10.95v146.97c.32.22.43.35.53.35,11-.18,22.06.96,32.98-1.24,14.29-2.88,25.75-10.48,35.23-21.34,10.15-11.64,16.24-25.13,18.44-40.39,4.59-31.77-7.4-60.87-36.34-78.06-9.97-5.92-20.96-8.4-32.51-8.4-66.95,0-133.9.02-200.85.03-.83,0-1.67,0-2.61,0v-2.43c.74,0,1.43,0,2.12,0,67.79,0,135.59-.1,203.38.06,21.86.05,40.6,8.19,56.33,23.37,10.17,9.82,17.64,21.32,20.52,35.23,5.63,27.13-.8,51.08-20.02,71.32-10.27,10.82-22.43,18.63-37.07,21.95-6.02,1.36-12.27,2.08-18.44,2.3-10.37.37-20.76.1-31.14.1-.44,0-.89-.07-1.49-.13Z"/>
  <path class="cls-1" d="m507.05,246.89V92.28h10.96v152.25h203.42v2.36h-214.38Z"/>
</svg>